
				<svg t="1743924682348" class="logo" viewBox="0 0 1024 1024" version="1.1" xmlns="http://www.w3.org/2000/svg" p-id="1733" width="32" height="32"><path d="M716.8 561.92m0 51.2l0 0q0 51.2-51.2 51.2l-307.2 0q-51.2 0-51.2-51.2l0 0q0-51.2 51.2-51.2l307.2 0q51.2 0 51.2 51.2Z" fill="#e6e6e6" p-id="1734"></path><path d="M460.8 382.72m51.2 0l0 0q51.2 0 51.2 51.2l0 256q0 51.2-51.2 51.2l0 0q-51.2 0-51.2-51.2l0-256q0-51.2 51.2-51.2Z" fill="#e6e6e6" p-id="1735"></path><path d="M716.8 408.32m0 51.2l0 0q0 51.2-51.2 51.2l-307.2 0q-51.2 0-51.2-51.2l0 0q0-51.2 51.2-51.2l307.2 0q51.2 0 51.2 51.2Z" fill="#e6e6e6" p-id="1736"></path><path d="M617.505801 256.006465m36.203867 36.203867l0 0q36.203867 36.203867 0 72.407734l-108.611602 108.611602q-36.203867 36.203867-72.407734 0l0 0q-36.203867-36.203867 0-72.407734l108.611602-108.611602q36.203867-36.203867 72.407734 0Z" fill="#e6e6e6" p-id="1737"></path><path d="M406.507208 256.001077m-36.203867 36.203867l0 0q-36.203867 36.203867 0 72.407734l108.611601 108.611602q36.203867 36.203867 72.407735 0l0 0q36.203867-36.203867 0-72.407735l-108.611602-108.611601q-36.203867-36.203867-72.407734 0Z" fill="#e6e6e6" p-id="1738"></path><path d="M512 51.2a460.8 460.8 0 1 1 0 921.6 460.8 460.8 0 0 1 0-921.6z m0 102.4a358.4 358.4 0 1 0 0 716.8 358.4 358.4 0 0 0 0-716.8z" fill="#e6e6e6" p-id="1739"></path></svg>